<svg xmlns="http://www.w3.org/2000/svg" width="238" height="297" viewBox="0 0 238 297">
  <rect width="238" height="297" fill="#ffffff"/>
  <path d="M 103 218 L 103 230 L 109 230 L 111 228 L 112 228 L 112 227 L 113 226 L 113 222 L 112 221 L 112 220 L 111 219 L 109 219 L 108 218 Z M 24 144 L 32 159 L 29 160 L 29 260 L 209 260 L 209 161 L 207 160 L 212 155 L 216 144 L 207 153 L 187 163 L 191 150 L 191 138 L 183 150 L 173 174 L 193 169 L 207 160 L 208 162 L 199 171 L 188 176 L 166 177 L 174 166 L 175 160 L 147 181 L 161 184 L 184 184 L 172 190 L 154 189 L 133 179 L 120 181 L 107 179 L 82 190 L 65 189 L 56 184 L 79 184 L 94 181 L 65 160 L 74 177 L 53 176 L 40 170 L 35 162 L 47 169 L 67 174 L 59 154 L 49 138 L 53 163 L 35 154 Z M 184 213 L 185 214 L 185 239 L 184 240 L 184 243 L 182 245 L 182 246 L 181 247 L 180 247 L 179 248 L 178 248 L 177 249 L 167 249 L 166 248 L 167 247 L 167 244 L 168 243 L 169 244 L 171 244 L 172 243 L 174 243 L 175 242 L 175 241 L 176 240 L 176 214 L 177 213 Z M 95 213 L 113 213 L 114 214 L 116 214 L 117 215 L 118 215 L 121 218 L 121 219 L 122 220 L 122 225 L 121 226 L 121 227 L 117 231 L 116 231 L 115 232 L 114 232 L 114 233 L 115 234 L 116 234 L 117 235 L 117 236 L 119 238 L 119 239 L 120 240 L 120 241 L 121 242 L 121 243 L 123 245 L 123 246 L 124 247 L 124 248 L 123 249 L 116 249 L 113 246 L 113 245 L 112 244 L 112 243 L 111 242 L 111 241 L 109 239 L 109 238 L 108 237 L 108 236 L 107 235 L 103 235 L 103 248 L 102 249 L 95 249 L 94 248 L 94 214 Z M 142 213 L 145 213 L 146 212 L 153 212 L 154 213 L 158 213 L 159 214 L 159 217 L 157 219 L 155 219 L 154 218 L 147 218 L 146 219 L 145 219 L 142 222 L 142 223 L 141 224 L 141 225 L 140 226 L 140 236 L 141 237 L 141 238 L 142 239 L 142 240 L 144 242 L 145 242 L 146 243 L 148 243 L 149 244 L 153 244 L 154 243 L 157 243 L 158 242 L 159 243 L 159 247 L 158 248 L 157 248 L 156 249 L 143 249 L 142 248 L 141 248 L 140 247 L 139 247 L 138 246 L 137 246 L 133 242 L 133 241 L 132 240 L 132 238 L 131 237 L 131 232 L 130 231 L 130 230 L 131 229 L 131 225 L 132 224 L 132 222 L 134 220 L 134 219 L 137 216 L 138 216 L 140 214 L 141 214 Z M 67 213 L 70 213 L 71 212 L 78 212 L 79 213 L 82 213 L 83 214 L 83 218 L 82 219 L 79 219 L 78 218 L 71 218 L 70 219 L 69 219 L 66 222 L 66 223 L 65 224 L 65 225 L 64 226 L 64 236 L 65 237 L 65 238 L 66 239 L 66 240 L 68 242 L 69 242 L 70 243 L 72 243 L 73 244 L 76 244 L 77 243 L 80 243 L 81 242 L 82 242 L 83 243 L 83 247 L 81 249 L 67 249 L 66 248 L 65 248 L 64 247 L 63 247 L 62 246 L 61 246 L 58 243 L 58 242 L 56 240 L 56 239 L 55 238 L 55 233 L 54 232 L 54 231 L 55 230 L 55 225 L 56 224 L 56 223 L 57 222 L 57 221 L 59 219 L 59 218 L 60 217 L 61 217 L 63 215 L 64 215 L 65 214 L 66 214 Z M 125 185 L 126 184 L 132 184 L 133 185 L 134 185 L 135 186 L 136 186 L 137 187 L 138 187 L 141 190 L 142 190 L 144 192 L 145 192 L 146 193 L 147 193 L 148 194 L 147 195 L 140 195 L 139 194 L 138 194 L 134 190 L 133 190 L 131 188 L 130 188 L 129 187 L 128 187 L 127 186 L 126 186 Z M 115 185 L 114 186 L 112 186 L 110 188 L 109 188 L 107 190 L 106 190 L 102 194 L 101 194 L 100 195 L 99 195 L 98 196 L 91 196 L 90 195 L 91 194 L 92 194 L 93 193 L 94 193 L 95 192 L 96 192 L 98 190 L 99 190 L 102 187 L 103 187 L 104 186 L 105 186 L 106 185 L 107 185 L 108 184 L 114 184 Z M 223 116 L 222 116 L 222 118 L 221 119 L 221 121 L 220 122 L 220 123 L 218 125 L 218 126 L 204 140 L 204 141 L 203 142 L 202 141 L 202 139 L 203 138 L 203 127 L 202 126 L 202 122 L 201 121 L 201 118 L 200 117 L 200 115 L 199 115 L 199 117 L 198 118 L 198 121 L 197 122 L 197 125 L 196 126 L 196 131 L 195 132 L 195 150 L 194 151 L 194 154 L 193 155 L 193 157 L 194 157 L 197 154 L 198 154 L 200 152 L 201 152 L 203 150 L 204 150 L 207 147 L 208 147 L 216 139 L 216 138 L 218 136 L 218 135 L 219 134 L 219 133 L 220 132 L 220 131 L 221 130 L 221 128 L 222 127 L 222 124 L 223 123 Z M 17 116 L 17 122 L 18 123 L 18 126 L 19 127 L 19 129 L 20 130 L 20 132 L 21 133 L 21 134 L 23 136 L 23 137 L 25 139 L 25 140 L 31 146 L 32 146 L 35 149 L 36 149 L 38 151 L 39 151 L 41 153 L 42 153 L 44 155 L 45 155 L 46 156 L 47 156 L 47 155 L 46 154 L 46 151 L 45 150 L 45 130 L 44 129 L 44 125 L 43 124 L 43 122 L 42 121 L 42 115 L 41 115 L 40 116 L 40 118 L 39 119 L 39 122 L 38 123 L 38 130 L 37 131 L 37 136 L 38 137 L 38 140 L 37 141 L 23 127 L 23 126 L 21 124 L 21 123 L 20 122 L 20 121 L 19 120 L 19 119 L 18 118 L 18 116 Z M 46 47 L 45 47 L 37 55 L 33 64 L 33 82 L 45 73 L 47 74 L 35 86 L 32 91 L 31 90 L 31 80 L 30 79 L 30 67 L 32 61 L 31 61 L 25 71 L 24 77 L 23 78 L 23 88 L 29 107 L 30 107 L 30 105 L 35 97 L 39 93 L 40 94 L 33 107 L 30 116 L 21 95 L 21 87 L 20 87 L 18 93 L 18 107 L 19 108 L 20 114 L 33 133 L 34 133 L 34 126 L 37 117 L 39 114 L 39 111 L 41 106 L 41 94 L 40 94 L 39 92 L 42 89 L 47 79 L 48 74 L 46 73 L 57 61 L 57 60 L 55 60 L 53 62 L 51 62 L 45 65 L 41 68 L 40 70 L 39 69 L 41 58 L 43 52 L 45 50 Z M 193 46 L 198 55 L 199 62 L 202 70 L 201 71 L 195 65 L 182 59 L 182 60 L 189 69 L 194 73 L 192 74 L 194 81 L 198 89 L 201 92 L 201 93 L 199 94 L 199 106 L 206 125 L 206 133 L 207 133 L 217 120 L 222 108 L 223 98 L 222 97 L 221 88 L 220 86 L 219 86 L 219 96 L 210 117 L 209 116 L 208 109 L 201 95 L 202 94 L 207 99 L 211 107 L 212 107 L 212 103 L 217 88 L 217 78 L 216 77 L 215 71 L 209 61 L 208 61 L 209 67 L 210 68 L 210 79 L 209 80 L 210 91 L 209 92 L 203 83 L 193 74 L 195 73 L 207 82 L 207 65 L 206 64 L 206 61 L 203 55 L 199 50 Z M 172 38 L 172 39 L 173 39 L 180 46 L 180 47 L 182 49 L 182 50 L 184 52 L 184 53 L 191 60 L 192 60 L 194 62 L 195 62 L 196 63 L 197 63 L 197 62 L 196 61 L 196 58 L 195 57 L 195 56 L 194 55 L 194 53 L 192 51 L 192 50 L 185 43 L 184 43 L 182 41 L 181 41 L 180 40 L 178 40 L 177 39 L 175 39 L 174 38 Z M 68 38 L 65 38 L 64 39 L 62 39 L 61 40 L 60 40 L 59 41 L 58 41 L 57 42 L 56 42 L 53 45 L 52 45 L 49 48 L 49 49 L 47 51 L 47 52 L 46 53 L 46 54 L 45 55 L 45 57 L 44 58 L 44 61 L 43 62 L 43 63 L 44 63 L 45 62 L 46 62 L 48 60 L 49 60 L 55 54 L 55 53 L 57 51 L 57 50 L 58 49 L 58 48 L 60 46 L 60 45 L 65 40 L 66 40 L 67 39 L 68 39 Z M 108 34 L 91 39 L 85 42 L 69 54 L 60 65 L 53 78 L 50 87 L 50 91 L 48 97 L 48 113 L 49 114 L 49 119 L 53 132 L 62 148 L 71 158 L 80 165 L 91 171 L 103 175 L 107 175 L 108 176 L 132 176 L 147 172 L 162 164 L 179 147 L 187 133 L 191 120 L 191 114 L 192 113 L 191 90 L 186 75 L 181 66 L 173 56 L 163 47 L 147 38 L 137 35 L 127 34 L 126 33 Z M 125 158 L 126 157 L 130 157 L 131 158 L 130 159 L 126 159 Z M 165 154 L 160 159 L 159 159 L 157 161 L 156 161 L 155 162 L 154 162 L 152 164 L 151 164 L 150 165 L 149 165 L 148 166 L 147 166 L 146 167 L 144 167 L 143 168 L 141 168 L 140 169 L 138 169 L 137 170 L 133 170 L 132 171 L 125 171 L 124 172 L 123 171 L 123 165 L 124 164 L 129 164 L 130 163 L 133 163 L 134 162 L 137 162 L 138 161 L 140 161 L 141 160 L 143 160 L 144 159 L 145 159 L 146 158 L 147 158 L 148 157 L 149 157 L 150 156 L 151 156 L 153 154 L 154 154 L 157 151 L 158 151 L 160 149 Z M 75 154 L 80 149 L 81 150 L 82 150 L 85 153 L 86 153 L 88 155 L 89 155 L 91 157 L 92 157 L 93 158 L 94 158 L 95 159 L 96 159 L 97 160 L 99 160 L 100 161 L 102 161 L 103 162 L 106 162 L 107 163 L 111 163 L 112 164 L 117 164 L 118 165 L 118 171 L 117 172 L 116 172 L 115 171 L 108 171 L 107 170 L 104 170 L 103 169 L 100 169 L 99 168 L 97 168 L 96 167 L 95 167 L 94 166 L 92 166 L 91 165 L 90 165 L 88 163 L 87 163 L 86 162 L 85 162 L 83 160 L 82 160 L 80 158 L 79 158 Z M 186 108 L 187 109 L 187 114 L 186 115 L 186 119 L 185 120 L 185 123 L 184 124 L 184 126 L 183 127 L 183 129 L 182 130 L 182 131 L 181 132 L 181 133 L 180 134 L 180 135 L 179 136 L 179 137 L 178 138 L 178 139 L 176 141 L 176 142 L 174 144 L 174 145 L 169 150 L 168 150 L 164 146 L 164 145 L 167 142 L 167 141 L 169 139 L 169 138 L 171 136 L 171 135 L 173 133 L 173 132 L 174 131 L 174 130 L 175 129 L 175 127 L 176 126 L 176 124 L 177 123 L 177 121 L 178 120 L 178 117 L 179 116 L 179 109 L 180 108 Z M 54 108 L 60 108 L 61 109 L 61 114 L 62 115 L 62 119 L 63 120 L 63 123 L 64 124 L 64 125 L 65 126 L 65 128 L 66 129 L 66 130 L 67 131 L 67 132 L 68 133 L 68 134 L 69 135 L 69 136 L 71 138 L 71 139 L 75 143 L 75 144 L 76 145 L 76 146 L 73 149 L 72 149 L 71 150 L 67 146 L 67 145 L 64 142 L 64 141 L 62 139 L 62 138 L 61 137 L 61 136 L 60 135 L 60 134 L 59 133 L 59 132 L 58 131 L 58 129 L 57 128 L 57 127 L 56 126 L 56 123 L 55 122 L 55 119 L 54 118 L 54 112 L 53 111 L 53 109 Z M 171 86 L 172 87 L 172 89 L 173 90 L 173 93 L 174 94 L 174 101 L 175 102 L 175 108 L 174 109 L 174 115 L 173 116 L 173 119 L 172 120 L 172 122 L 171 123 L 171 125 L 170 126 L 170 127 L 169 128 L 167 133 L 165 135 L 165 136 L 163 138 L 163 139 L 157 145 L 156 144 L 156 143 L 158 141 L 158 140 L 162 133 L 162 130 L 161 130 L 156 135 L 155 135 L 154 136 L 154 138 L 155 139 L 155 140 L 153 142 L 153 144 L 156 146 L 155 147 L 154 147 L 151 150 L 150 150 L 148 152 L 147 152 L 140 156 L 138 156 L 137 157 L 135 157 L 134 156 L 137 154 L 137 153 L 139 151 L 139 149 L 141 147 L 142 147 L 143 146 L 143 140 L 145 138 L 148 137 L 150 135 L 150 128 L 149 127 L 149 125 L 148 124 L 148 122 L 153 117 L 153 116 L 156 113 L 157 113 L 159 111 L 159 110 L 163 103 L 163 100 L 159 100 L 158 101 L 155 101 L 154 102 L 153 102 L 151 100 L 154 98 L 156 98 L 157 97 L 159 97 L 160 96 L 161 96 L 164 93 L 166 93 Z M 139 78 L 141 80 L 142 80 L 143 81 L 143 82 L 144 83 L 144 84 L 146 86 L 146 88 L 147 88 L 149 90 L 149 91 L 151 93 L 151 95 L 152 96 L 152 97 L 151 98 L 149 96 L 148 96 L 147 95 L 147 94 L 146 93 L 146 92 L 144 90 L 144 88 L 143 87 L 143 86 L 140 83 L 140 82 L 138 80 L 138 79 Z M 169 60 L 174 65 L 174 66 L 176 68 L 176 69 L 178 71 L 178 72 L 179 73 L 179 74 L 180 75 L 180 76 L 181 77 L 181 78 L 182 79 L 182 80 L 183 81 L 183 83 L 184 84 L 184 86 L 185 87 L 185 90 L 186 91 L 186 95 L 187 96 L 187 102 L 186 103 L 180 103 L 179 102 L 179 95 L 178 94 L 178 90 L 177 89 L 177 87 L 176 86 L 176 84 L 175 83 L 175 82 L 174 81 L 174 79 L 173 78 L 173 77 L 171 75 L 171 74 L 169 72 L 169 71 L 167 69 L 167 68 L 164 65 Z M 72 60 L 76 64 L 76 66 L 72 70 L 72 71 L 70 73 L 70 74 L 68 76 L 68 77 L 67 78 L 67 79 L 66 80 L 66 81 L 65 82 L 65 84 L 64 85 L 64 87 L 63 88 L 63 90 L 62 91 L 62 95 L 61 96 L 61 102 L 60 103 L 54 103 L 53 102 L 53 99 L 54 98 L 54 92 L 55 91 L 55 88 L 56 87 L 56 85 L 57 84 L 57 82 L 58 81 L 58 79 L 59 78 L 59 77 L 60 76 L 60 75 L 61 74 L 61 73 L 63 71 L 63 70 L 65 68 L 65 67 L 67 65 L 67 64 L 71 60 Z M 112 51 L 117 51 L 118 55 L 122 55 L 124 51 L 128 51 L 146 57 L 156 64 L 162 70 L 170 82 L 169 83 L 166 81 L 161 82 L 155 76 L 147 72 L 143 72 L 141 75 L 140 73 L 137 75 L 136 74 L 131 75 L 122 72 L 120 76 L 115 73 L 111 73 L 109 71 L 110 69 L 108 67 L 100 67 L 99 66 L 106 64 L 106 62 L 108 60 L 108 58 L 106 58 L 100 63 L 97 62 L 94 64 L 89 65 L 88 67 L 95 67 L 96 68 L 95 69 L 88 69 L 74 86 L 75 88 L 74 99 L 78 102 L 80 106 L 85 109 L 89 108 L 94 109 L 99 106 L 102 106 L 104 109 L 109 109 L 110 110 L 109 118 L 113 122 L 115 128 L 115 131 L 113 133 L 113 139 L 117 145 L 117 148 L 121 157 L 120 159 L 107 158 L 98 155 L 88 149 L 79 141 L 73 133 L 69 125 L 66 114 L 66 96 L 70 83 L 76 73 L 82 66 L 91 59 L 101 54 Z M 123 39 L 124 38 L 125 39 L 132 39 L 133 40 L 137 40 L 138 41 L 140 41 L 141 42 L 143 42 L 144 43 L 145 43 L 146 44 L 148 44 L 149 45 L 150 45 L 151 46 L 152 46 L 154 48 L 155 48 L 156 49 L 157 49 L 160 52 L 161 52 L 165 56 L 160 61 L 158 59 L 157 59 L 155 57 L 154 57 L 152 55 L 151 55 L 149 53 L 148 53 L 147 52 L 146 52 L 145 51 L 143 51 L 142 50 L 141 50 L 140 49 L 138 49 L 137 48 L 134 48 L 133 47 L 129 47 L 128 46 L 124 46 L 123 45 Z M 118 39 L 118 45 L 117 46 L 113 46 L 112 47 L 107 47 L 106 48 L 104 48 L 103 49 L 101 49 L 100 50 L 98 50 L 97 51 L 96 51 L 95 52 L 94 52 L 93 53 L 92 53 L 91 54 L 90 54 L 89 55 L 88 55 L 86 57 L 85 57 L 81 61 L 80 61 L 75 56 L 79 52 L 80 52 L 82 50 L 83 50 L 85 48 L 86 48 L 87 47 L 88 47 L 89 46 L 90 46 L 91 45 L 92 45 L 93 44 L 94 44 L 95 43 L 96 43 L 97 42 L 99 42 L 100 41 L 103 41 L 104 40 L 108 40 L 109 39 L 116 39 L 117 38 Z" fill="#235393" fill-rule="evenodd"/>
</svg>
